<?xml version="1.0" standalone="no"?>
<!DOCTYPE svg PUBLIC "-//W3C//DTD SVG 20010904//EN"
 "http://www.w3.org/TR/2001/REC-SVG-20010904/DTD/svg10.dtd">
<svg version="1.0" xmlns="http://www.w3.org/2000/svg"
 width="1024.000000pt" height="1024.000000pt" viewBox="0 0 1024.000000 1024.000000"
 preserveAspectRatio="xMidYMid meet">
<metadata>
Created by potrace 1.16, written by Peter Selinger 2001-2019
</metadata>
<g transform="translate(0.000000,1024.000000) scale(0.100000,-0.100000)"
fill="#000000" stroke="none">
<path d="M0 5120 l0 -5120 5120 0 5120 0 0 5120 0 5120 -5120 0 -5120 0 0
-5120z m4672 2093 c17 -15 18 -86 18 -1845 l0 -1828 1333 -2 c1630 -4 1561 -4
1569 0 8 3 18 -20 -182 390 l-163 332 -186 2 c-102 2 -217 3 -256 4 -123 2
-814 -16 -990 -26 -93 -5 -334 -19 -535 -30 -201 -11 -384 -22 -406 -25 -81
-11 -74 -150 -74 1470 0 1299 2 1445 16 1459 14 14 170 16 1565 16 1683 0
1597 3 1635 -54 10 -16 19 -55 22 -94 5 -82 -13 -135 -58 -160 l-30 -17 0
-1257 c0 -1129 -2 -1258 -16 -1272 -12 -12 -38 -16 -116 -16 l-100 0 5 -27 c2
-16 33 -136 67 -268 34 -132 72 -285 84 -340 l22 -100 179 -6 c224 -8 238 -10
145 -21 -94 -11 -5287 -18 -5848 -8 -371 7 -435 10 -421 24 2 2 82 6 176 8
l172 3 3 1838 c3 1807 3 1839 22 1853 17 12 193 14 1175 14 1060 0 1156 -1
1173 -17z M2427 7123 c-4 -3 -7 -795 -7 -1760 l0 -1753 96 0 97 0 -7 48 c-14
104 -19 580 -7 747 37 520 119 812 396 1410 114 246 226 537 264 683 50 196
101 491 101 589 l0 43 -118 0 -118 0 -13 -117 c-15 -145 -42 -286 -86 -464
-39 -155 -61 -224 -151 -469 -94 -255 -108 -292 -112 -281 -3 10 33 135 119
411 82 267 162 644 176 838 l6 82 -87 0 -86 0 0 -45 c0 -71 -19 -230 -41 -340
-30 -147 -80 -357 -86 -352 -2 3 5 58 16 123 32 193 42 310 39 464 l-3 145
-109 3 -109 3 6 -61 c32 -305 33 -602 2 -940 -18 -198 -52 -460 -61 -469 -4
-3 -4 14 0 39 23 172 30 360 31 805 0 270 -4 520 -8 558 l-9 67 -62 0 c-35 0
-66 -3 -69 -7z m330 -765 c-3 -8 -6 -5 -6 6 -1 11 2 17 5 13 3 -3 4 -12 1 -19z
M3425 7073 c-33 -294 -82 -537 -145 -723 -42 -122 -166 -423 -215 -519 -50
-100 -234 -541 -277 -666 -76 -219 -109 -384 -138 -700 -16 -174 -24 -505 -15
-687 l7 -168 79 0 79 0 0 143 c0 224 34 540 81 747 64 284 149 509 320 852
126 252 179 372 279 628 186 479 275 795 305 1088 l7 62 -180 0 -181 0 -6 -57z
M3846 7098 c-61 -372 -86 -457 -319 -1063 -125 -325 -181 -462 -247 -601 -90
-190 -114 -244 -170 -384 -154 -389 -225 -750 -237 -1212 l-6 -228 106 0 c126
0 110 -27 132 220 31 349 95 671 189 953 25 72 88 229 141 347 333 738 415
949 500 1290 55 219 85 399 110 648 l6 62 -100 0 -100 0 -5 -32z M4091 6998
c-36 -394 -170 -829 -447 -1458 -42 -96 -94 -215 -116 -265 -102 -231 -133
-306 -179 -437 -115 -326 -189 -757 -189 -1100 l0 -128 129 0 129 0 6 28 c11
58 27 187 51 432 14 140 30 271 35 290 9 34 9 33 5 -10 -6 -66 -24 -411 -29
-587 l-5 -153 32 0 33 0 12 88 c15 112 27 232 52 516 42 471 87 643 285 1086
237 534 318 812 390 1345 22 165 53 468 48 478 -2 4 -55 7 -117 7 l-112 0 -13
-132z M4382 6978 c-25 -316 -85 -703 -146 -946 -49 -192 -133 -413 -319 -842
-138 -319 -177 -440 -216 -671 -35 -205 -52 -401 -58 -661 l-6 -248 82 0 81 0
0 66 c0 82 27 424 41 524 26 186 99 458 168 628 26 64 90 212 141 327 269 610
366 975 420 1580 11 116 13 356 4 379 -5 13 -23 16 -93 16 l-87 0 -12 -152z
M5052 7053 c-148 -3 -163 -5 -160 -21 3 -16 35 -17 393 -23 215 -3 897 -10
1517 -14 1144 -8 1158 -8 1158 26 0 4 -7 15 -16 23 -14 14 -150 16 -1372 14
-746 -1 -1430 -4 -1520 -5z M4905 6798 c-3 -7 -4 -515 -3 -1128 l3 -1115 1410
0 1410 0 3 1128 2 1127 -1410 0 c-1119 0 -1412 -3 -1415 -12z m435 -277 c19
-10 43 -32 53 -48 28 -49 40 -181 35 -398 -5 -172 -8 -208 -27 -256 -38 -99
-106 -138 -184 -105 -54 22 -62 52 -35 129 18 52 22 92 26 242 4 173 -1 227
-28 326 -7 25 -10 57 -6 72 13 53 101 73 166 38z M5243 6469 c-7 -7 -5 -24 7
-58 27 -69 43 -237 38 -379 -6 -138 3 -140 27 -6 22 121 18 408 -5 428 -23 20
-55 27 -67 15z M7798 6658 c-3 -84 -4 -596 -3 -1138 3 -840 1 -988 -11 -1007
l-14 -23 -1438 -2 -1437 -3 0 -30 0 -30 1450 -2 c1431 -3 1450 -3 1483 17 l32
20 0 1175 0 1175 -28 0 -29 0 -5 -152z M4567 6230 c-14 -95 -77 -339 -126
-490 -57 -172 -163 -430 -271 -659 -253 -539 -319 -791 -337 -1288 l-6 -183
136 0 c76 0 137 3 137 8 0 46 46 459 65 587 54 359 80 454 230 825 101 249
152 403 175 525 7 39 10 178 8 395 -2 216 -6 315 -11 280z M4561 5345 c-7 -16
-19 -46 -26 -65 -7 -19 -46 -114 -88 -210 -97 -228 -164 -414 -187 -520 -38
-177 -77 -556 -82 -800 l-3 -145 25 -4 c14 -1 70 0 126 4 l100 7 18 146 c43
360 65 512 96 692 25 141 41 450 38 722 -3 180 -5 200 -17 173z M4568 4290
c-11 -25 -43 -317 -65 -602 l-6 -78 37 0 c20 0 39 6 41 13 8 20 1 684 -7 667z
M7615 4020 c-9 -14 6 -57 86 -248 110 -262 114 -252 17 48 -33 102 -65 191
-70 198 -13 15 -25 16 -33 2z"/>
</g>
</svg>
